<?xml version="1.0" encoding="UTF-8"?>
<svg version="1.1" xmlns="http://www.w3.org/2000/svg" width="512" height="512">
<path d="M0 0 C7.48238288 3.79388428 11.2510132 11.79987823 14.0625 19.3125 C14.38202637 20.13065186 14.70155273 20.94880371 15.03076172 21.79174805 C17.04565457 27.0036228 18.95821609 32.25119024 20.85014343 37.50862122 C21.98403755 40.65601909 23.1277819 43.79981681 24.27072144 46.94393921 C25.11176936 49.27581692 25.93428956 51.61367976 26.75610352 53.95239258 C31.12969806 66.71602601 31.12969806 66.71602601 41.23046875 74.9765625 C42.70824274 75.54695516 44.19476918 76.09498261 45.6875 76.625 C46.51612549 76.94001465 47.34475098 77.2550293 48.19848633 77.57958984 C51.28979712 78.74615306 54.39329977 79.87504016 57.5 81 C62.78174183 82.9149953 68.06061965 84.83750666 73.33609009 86.76971436 C75.64559067 87.60975619 77.96036463 88.43374174 80.27612305 89.25634766 C91.04540028 93.1341092 100.71049964 96.71787119 106.40234375 107.29296875 C109.28302012 114.39727026 109.20730961 121.47562371 106.60546875 128.65625 C103.22119309 135.83139274 98.69915251 139.23502378 91.44921875 142.2734375 C90.75473633 142.57061172 90.06025391 142.86778595 89.34472656 143.17396545 C80.66098447 146.84535816 71.83051401 150.13972207 63 153.4375 C61.29021638 154.07968369 59.58058016 154.72225996 57.87109375 155.36523438 C53.7490726 156.91466485 49.62512287 158.45884743 45.5 160 C45.49864347 160.54657228 45.49728694 161.09314455 45.49588931 161.65627962 C45.41512192 194.09875533 45.32411964 226.54118406 45.21994839 258.9835926 C45.20743052 262.88481345 45.19499759 266.78603457 45.18261719 270.68725586 C45.18015119 271.46387166 45.1776852 272.24048746 45.17514448 273.04063707 C45.13549317 285.59171963 45.1027122 298.14281112 45.07250018 310.69391955 C45.04131256 323.58633012 45.00267229 336.47870307 44.95720994 349.37107128 C44.92942187 357.3170992 44.90734723 365.26309981 44.89273749 373.20916306 C44.88088254 379.3170186 44.8586251 385.4247973 44.83261681 391.53260803 C44.82359025 394.02737378 44.81786238 396.52215413 44.81578636 399.01693535 C44.78635432 429.02867578 41.04615863 454.01312196 21.5 478 C20.91347656 478.73992187 20.32695312 479.47984375 19.72265625 480.2421875 C7.45923415 495.07371446 -12.554081 506.68339876 -31.5 510 C-35.79321043 510.29809891 -40.0767752 510.30399606 -44.37915039 510.30639648 C-45.6534491 510.31472 -46.9277478 510.32304352 -48.24066162 510.33161926 C-51.71836589 510.35344784 -55.19598229 510.36234799 -58.6737473 510.36744571 C-60.85422424 510.37110477 -63.03467872 510.37735292 -65.21514702 510.3844471 C-72.84453197 510.40890646 -80.47384934 510.42198474 -88.10327148 510.42553711 C-95.1776653 510.42916407 -102.2516231 510.45900779 -109.32588392 510.50094169 C-115.42815479 510.53582562 -121.5302825 510.55108869 -127.63265222 510.55178314 C-131.26445559 510.55257019 -134.89581456 510.56103981 -138.5275135 510.58978081 C-167.51581488 510.80508697 -167.51581488 510.80508697 -179.5 505 C-180.4752211 504.54721176 -181.4504422 504.09442352 -182.45521545 503.62791443 C-194.88189457 497.36337633 -204.42150974 487.38135109 -214.14453125 477.66186523 C-215.48898517 476.32504752 -216.83383489 474.98862776 -218.17904663 473.65257263 C-221.80791146 470.04551402 -225.43031145 466.43203279 -229.05083847 462.81660724 C-231.31972581 460.5513796 -233.58990203 458.28745165 -235.86050415 456.02394295 C-243.80072577 448.10816642 -251.73525402 440.18672902 -259.66503906 432.26049805 C-267.02633026 424.90283949 -274.40064531 417.55841359 -281.7810297 410.21991199 C-288.14271872 403.8930471 -294.49462217 397.55646546 -300.83927059 391.21251255 C-304.6173905 387.43518123 -308.39928243 383.66183516 -312.1913147 379.89846611 C-315.76155972 376.35461056 -319.31935685 372.79869408 -322.86845779 369.23366737 C-324.16284777 367.9374795 -325.46140894 366.64543946 -326.76472092 365.35822296 C-337.22460116 355.01954992 -347.13935815 343.76235464 -352 329.625 C-352.22429687 329.00496094 -352.44859375 328.38492187 -352.6796875 327.74609375 C-355.36969881 320.07164971 -356.80229798 312.58664332 -356.76069641 304.45710754 C-356.76452196 303.64666872 -356.76834751 302.8362299 -356.77228898 302.00123233 C-356.78252807 299.31170748 -356.77864423 296.62239977 -356.7746582 293.93286133 C-356.77900982 291.99368087 -356.78419446 290.05450213 -356.79014587 288.11532593 C-356.80350138 282.86506682 -356.80411819 277.61487987 -356.80158257 272.3646071 C-356.80051013 267.97140894 -356.80540342 263.57822522 -356.810188 259.18503016 C-356.82127211 248.81271413 -356.8217273 238.44043432 -356.81567383 228.06811523 C-356.80963969 217.39416688 -356.82193339 206.72035053 -356.8432439 196.04642469 C-356.86090424 186.86052929 -356.86685412 177.67467573 -356.86360615 168.48876399 C-356.8617996 163.01218016 -356.86436623 157.53569043 -356.87832069 152.05912209 C-356.89096603 146.90359709 -356.88889191 141.74827649 -356.87590981 136.59275436 C-356.87355869 134.71032197 -356.87622555 132.8278749 -356.88453293 130.94545937 C-356.99660956 103.55444331 -349.03295861 78.68177269 -329.5234375 58.9296875 C-311.93758803 41.70068469 -289.42444928 30.59320678 -264.48983765 30.75949097 C-263.53390925 30.75778212 -262.57798085 30.75607327 -261.59308493 30.75431263 C-258.41793524 30.75104135 -255.24300103 30.76198228 -252.06787109 30.77294922 C-249.78071091 30.77351384 -247.49355036 30.77319577 -245.20639038 30.77206421 C-239.01706532 30.7714917 -232.82781818 30.78322961 -226.63851118 30.79721212 C-220.16295234 30.8097364 -213.6873916 30.81089132 -207.21182251 30.81326294 C-196.34937149 30.81876772 -185.48694916 30.83125001 -174.62451172 30.84912109 C-163.44026837 30.86750239 -152.25603277 30.88164786 -141.07177734 30.89013672 C-140.3814216 30.89066217 -139.69106587 30.89118761 -138.97979026 30.89172898 C-135.51619212 30.89433921 -132.05259392 30.89686659 -128.5889957 30.89935279 C-99.89264457 30.92005828 -71.1963234 30.95540964 -42.5 31 C-42.29789413 30.31786942 -42.09578827 29.63573883 -41.88755798 28.93293762 C-41.62036453 28.03572495 -41.35317108 27.13851227 -41.07788086 26.21411133 C-40.81389999 25.32573074 -40.54991913 24.43735016 -40.27793884 23.52204895 C-39.34898373 20.51041084 -38.26475396 17.60050222 -37.0625 14.6875 C-36.67191406 13.72199219 -36.28132813 12.75648437 -35.87890625 11.76171875 C-33.57924829 7.15588822 -30.86861703 3.87964171 -26.4375 1.25 C-25.76589844 0.84265625 -25.09429687 0.4353125 -24.40234375 0.015625 C-17.24444307 -3.80584148 -7.25679723 -3.29151534 0 0 Z " fill="#D8E9F2" transform="translate(380.5,2)"/>
<path d="M0 0 C5.89748827 4.84725063 9.21191003 11.15491557 11.84375 18.1875 C12.16327637 19.00565186 12.48280273 19.82380371 12.81201172 20.66674805 C14.82690457 25.8786228 16.73946609 31.12619024 18.63139343 36.38362122 C19.76528755 39.53101909 20.9090319 42.67481681 22.05197144 45.81893921 C22.89301936 48.15081692 23.71553956 50.48867976 24.53735352 52.82739258 C28.91094806 65.59102601 28.91094806 65.59102601 39.01171875 73.8515625 C40.48949274 74.42195516 41.97601918 74.96998261 43.46875 75.5 C44.29737549 75.81501465 45.12600098 76.1300293 45.97973633 76.45458984 C49.07104712 77.62115306 52.17454977 78.75004016 55.28125 79.875 C60.56299183 81.7899953 65.84186965 83.71250666 71.11734009 85.64471436 C73.42684067 86.48475619 75.74161463 87.30874174 78.05737305 88.13134766 C88.82665028 92.0091092 98.49174964 95.59287119 104.18359375 106.16796875 C107.06427012 113.27227026 106.98855961 120.35062371 104.38671875 127.53125 C100.99636198 134.71928556 96.46605508 138.11495015 89.203125 141.15625 C88.50719742 141.45383713 87.81126984 141.75142426 87.09425354 142.05802917 C79.35777697 145.32939026 71.51417262 148.32473792 63.65063477 151.2746582 C61.1875514 152.19921083 58.72745151 153.1313977 56.26757812 154.06445312 C54.67725122 154.66450765 53.08676237 155.26413317 51.49609375 155.86328125 C50.4115818 156.27420769 50.4115818 156.27420769 49.30516052 156.69343567 C46.03830196 157.91529156 42.83698975 158.99794406 39.46923828 159.92993164 C35.36371044 161.1470015 33.25678033 162.80321482 30.28125 165.875 C28.90161541 168.53891647 27.84928033 170.95195099 26.84375 173.75 C26.52865479 174.57209961 26.21355957 175.39419922 25.88891602 176.24121094 C24.38320066 180.18352256 22.92247045 184.14223125 21.45788574 188.09997559 C19.55691451 193.23251958 17.64006 198.35875815 15.70895386 203.4800415 C14.73301113 206.08690674 13.77847598 208.70096278 12.82446289 211.31591797 C9.12114764 221.28079075 5.86125097 229.99935253 -3.90625 235.375 C-10.31664224 237.80615216 -16.95334816 238.07187878 -23.49609375 235.9921875 C-31.33300128 232.43317085 -35.95085699 227.32955419 -39.15649414 219.34204102 C-39.95362884 217.19304536 -40.73535404 215.03828893 -41.50390625 212.87890625 C-41.9274791 211.73139389 -42.35105194 210.58388153 -42.78746033 209.40159607 C-44.13293994 205.75192388 -45.45858601 202.09549635 -46.78125 198.4375 C-48.10954271 194.78391143 -49.44227541 191.1321498 -50.78575134 187.4841156 C-51.61878522 185.22032676 -52.44297661 182.95325772 -53.2568512 180.68251038 C-57.81483134 168.18580851 -57.81483134 168.18580851 -67.71875 159.875 C-71.48138082 158.29460167 -75.30055114 156.90777279 -79.14453125 155.5390625 C-81.40827214 154.71373093 -83.6719418 153.88820398 -85.93554688 153.0625 C-89.48220781 151.77949302 -93.03021029 150.50037339 -96.57983398 149.22558594 C-100.02186565 147.98611955 -103.45831991 146.7320582 -106.89453125 145.4765625 C-107.9448201 145.10447662 -108.99510895 144.73239075 -110.07722473 144.34902954 C-120.84950531 140.39927461 -129.07715535 135.67841712 -134.03125 125.0625 C-135.79921888 116.86555335 -135.10100839 110.10213432 -130.71875 102.875 C-124.38753182 95.13684445 -115.35707161 91.70936007 -106.2109375 88.37109375 C-104.58455856 87.76334862 -104.58455856 87.76334862 -102.92532349 87.14332581 C-99.4845039 85.8580323 -96.03967263 84.58404304 -92.59375 83.3125 C-89.1408448 82.0369919 -85.68907985 80.75880102 -82.24075317 79.47096252 C-80.10208967 78.67226455 -77.96080948 77.88052814 -75.81661987 77.0967865 C-66.84808938 73.74814656 -61.03499755 70.6846418 -56.71875 61.875 C-54.76165015 57.18322217 -53.0406108 52.41540117 -51.34375 47.625 C-50.86077351 46.28550815 -50.3769606 44.9463176 -49.89233398 43.60742188 C-47.74137023 37.64612152 -45.63708085 31.66969422 -43.58984375 25.671875 C-43.12360596 24.3111084 -43.12360596 24.3111084 -42.64794922 22.92285156 C-42.08978589 21.28200862 -41.53995716 19.63829478 -41.00048828 17.99121094 C-38.25074458 9.85168184 -33.74800027 3.09986423 -26.28125 -1.4375 C-17.81956151 -5.34043382 -8.09319934 -4.10359403 0 0 Z " fill="#1FB3E5" transform="translate(382.71875,3.125)"/>
<path d="M0 0 C14.7004691 -0.09393819 29.40089784 -0.16421928 44.10160732 -0.20724869 C50.92925052 -0.22776968 57.75670595 -0.25568657 64.58422852 -0.30175781 C71.18486633 -0.34627638 77.78536176 -0.36920151 84.38615608 -0.37950897 C86.89248773 -0.38684562 89.3988099 -0.40117076 91.90505791 -0.42292023 C109.09959933 -0.56607268 124.8403888 0.32108984 140.8125 7.25 C141.51060791 7.54664551 142.20871582 7.84329102 142.92797852 8.14892578 C153.7463347 12.91541081 162.49696781 19.88414616 171 28 C171.90298828 28.79083984 171.90298828 28.79083984 172.82421875 29.59765625 C189.09552915 44.42768508 197.23589729 67.58495801 199 89 C199.12993037 92.70730029 199.12691176 96.41012393 199.11352539 100.11938477 C199.11367142 101.19359177 199.11381744 102.26779877 199.1139679 103.3745575 C199.11327569 106.89686153 199.10551587 110.41911154 199.09765625 113.94140625 C199.09578961 116.39477001 199.09436687 118.84813415 199.09336853 121.30149841 C199.08956272 127.73761028 199.07974906 134.17369935 199.06866455 140.60980225 C199.05840871 147.18582857 199.05386199 153.7618586 199.04882812 160.33789062 C199.03812497 173.22527011 199.02126598 186.11263384 199 199 C181.32975825 199.33591261 164.21153076 187.86031567 151.91602135 176.09598732 C148.36276979 172.63287358 144.8658734 169.11376306 141.36791992 165.5949707 C140.0252511 164.25173666 138.6821396 162.90894498 137.33862305 161.56655884 C133.71673596 157.94524223 130.10102129 154.31782036 126.48643279 150.68922067 C122.69275345 146.88297056 118.89334406 143.08244867 115.09455872 139.28129578 C107.90738353 132.08791971 100.72531706 124.88946556 93.54510337 117.68914145 C85.38638464 109.50806572 77.22198792 101.33266655 69.05710065 93.15774786 C55.10206601 79.18537047 41.15126239 65.20878038 27.20521545 51.22743225 C26.61671777 50.63745537 26.02822008 50.0474785 25.42188913 49.43962353 C24.34272627 48.35772502 23.26359435 47.27579564 22.1845023 46.1938265 C19.88040091 43.88381701 17.5732436 41.57751507 15.25459766 39.28207684 C8.92983375 32.88022632 5.42740172 25.21903144 2.5625 16.8125 C2.303479 16.06460205 2.04445801 15.3167041 1.77758789 14.54614258 C1.54289795 13.81548584 1.30820801 13.0848291 1.06640625 12.33203125 C0.85959229 11.68983643 0.65277832 11.0476416 0.43969727 10.38598633 C-0.20049281 6.91203982 -0.02520405 3.53180039 0 0 Z " fill="#B8D2E0" transform="translate(25,312)"/>
</svg>
